<svg width="117" height="76" viewBox="0 0 117 76" fill="none" xmlns="http://www.w3.org/2000/svg">
<mask id="mask0_2_69" style="mask-type:alpha" maskUnits="userSpaceOnUse" x="4" y="15" width="109" height="24">
<path d="M10.95 16.15L11.5 20.05L11.4 19.7C12.1667 18.3333 13.25 17.2333 14.65 16.4C16.05 15.5333 17.7667 15.1 19.8 15.1C21.8667 15.1 23.5833 15.7167 24.95 16.95C26.35 18.15 27.0667 19.7167 27.1 21.65V38H20.1V24.25C20.0667 23.2833 19.8 22.5167 19.3 21.95C18.8333 21.35 18.0333 21.05 16.9 21.05C15.8333 21.05 14.9 21.4 14.1 22.1C13.3 22.8 12.6833 23.75 12.25 24.95C11.8167 26.15 11.6 27.5333 11.6 29.1V38H4.6V16.15H10.95ZM45.0375 38.6C42.3708 38.6 40.1042 38.1 38.2375 37.1C36.4042 36.1 35.0042 34.7167 34.0375 32.95C33.0708 31.1833 32.5875 29.15 32.5875 26.85C32.5875 24.65 33.1542 22.6667 34.2875 20.9C35.4208 19.1333 36.9375 17.7333 38.8375 16.7C40.7375 15.6333 42.8542 15.1 45.1875 15.1C48.3208 15.1 50.8875 16.0167 52.8875 17.85C54.9208 19.65 56.2375 22.2667 56.8375 25.7L39.8375 31.1L38.2875 27.3L50.5875 23.15L49.1375 23.8C48.8708 22.9333 48.3875 22.1833 47.6875 21.55C47.0208 20.8833 46.0042 20.55 44.6375 20.55C43.6042 20.55 42.6875 20.8 41.8875 21.3C41.1208 21.7667 40.5208 22.45 40.0875 23.35C39.6875 24.2167 39.4875 25.25 39.4875 26.45C39.4875 27.8167 39.7375 28.9667 40.2375 29.9C40.7375 30.8 41.4208 31.4833 42.2875 31.95C43.1542 32.4167 44.1208 32.65 45.1875 32.65C45.9542 32.65 46.6875 32.5167 47.3875 32.25C48.1208 31.9833 48.8375 31.6333 49.5375 31.2L52.6375 36.4C51.4708 37.0667 50.2042 37.6 48.8375 38C47.5042 38.4 46.2375 38.6 45.0375 38.6ZM60.2242 26.8C60.2242 24.5667 60.7409 22.5667 61.7742 20.8C62.8409 19.0333 64.3242 17.65 66.2242 16.65C68.1242 15.6167 70.3076 15.1 72.7742 15.1C75.2742 15.1 77.4409 15.6167 79.2742 16.65C81.1076 17.65 82.5076 19.0333 83.4742 20.8C84.4742 22.5667 84.9742 24.5667 84.9742 26.8C84.9742 29.0333 84.4742 31.05 83.4742 32.85C82.5076 34.6167 81.1076 36.0167 79.2742 37.05C77.4409 38.0833 75.2409 38.6 72.6742 38.6C70.2742 38.6 68.1242 38.1333 66.2242 37.2C64.3576 36.2667 62.8909 34.9167 61.8242 33.15C60.7576 31.3833 60.2242 29.2667 60.2242 26.8ZM67.2742 26.85C67.2742 27.9833 67.5076 29.0167 67.9742 29.95C68.4409 30.85 69.0742 31.5667 69.8742 32.1C70.6742 32.6333 71.5742 32.9 72.5742 32.9C73.6742 32.9 74.6242 32.6333 75.4242 32.1C76.2242 31.5667 76.8409 30.85 77.2742 29.95C77.7076 29.0167 77.9242 27.9833 77.9242 26.85C77.9242 25.6833 77.7076 24.65 77.2742 23.75C76.8409 22.85 76.2242 22.1333 75.4242 21.6C74.6242 21.0667 73.6742 20.8 72.5742 20.8C71.5742 20.8 70.6742 21.0667 69.8742 21.6C69.0742 22.1333 68.4409 22.85 67.9742 23.75C67.5076 24.65 67.2742 25.6833 67.2742 26.85ZM96.8387 16.15L97.3887 20.05L97.2887 19.7C98.0553 18.3333 99.1387 17.2333 100.539 16.4C101.939 15.5333 103.655 15.1 105.689 15.1C107.755 15.1 109.472 15.7167 110.839 16.95C112.239 18.15 112.955 19.7167 112.989 21.65V38H105.989V24.25C105.955 23.2833 105.689 22.5167 105.189 21.95C104.722 21.35 103.922 21.05 102.789 21.05C101.722 21.05 100.789 21.4 99.9887 22.1C99.1887 22.8 98.572 23.75 98.1387 24.95C97.7053 26.15 97.4887 27.5333 97.4887 29.1V38H90.4887V16.15H96.8387Z" fill="#AD6CFF"/>
</mask>
<g mask="url(#mask0_2_69)">
<rect x="-61" y="-104" width="253" height="253" fill="url(#paint0_linear_2_69)"/>
</g>
<mask id="mask1_2_69" style="mask-type:alpha" maskUnits="userSpaceOnUse" x="4" y="37" width="109" height="24">
<path d="M10.95 59.85L11.5 55.95L11.4 56.3C12.1667 57.6667 13.25 58.7667 14.65 59.6C16.05 60.4667 17.7667 60.9 19.8 60.9C21.8667 60.9 23.5833 60.2833 24.95 59.05C26.35 57.85 27.0667 56.2833 27.1 54.35V38H20.1V51.75C20.0667 52.7167 19.8 53.4833 19.3 54.05C18.8333 54.65 18.0333 54.95 16.9 54.95C15.8333 54.95 14.9 54.6 14.1 53.9C13.3 53.2 12.6833 52.25 12.25 51.05C11.8167 49.85 11.6 48.4667 11.6 46.9V38H4.6V59.85H10.95ZM45.0375 37.4C42.3708 37.4 40.1042 37.9 38.2375 38.9C36.4042 39.9 35.0042 41.2833 34.0375 43.05C33.0708 44.8167 32.5875 46.85 32.5875 49.15C32.5875 51.35 33.1542 53.3333 34.2875 55.1C35.4208 56.8667 36.9375 58.2667 38.8375 59.3C40.7375 60.3667 42.8542 60.9 45.1875 60.9C48.3208 60.9 50.8875 59.9833 52.8875 58.15C54.9208 56.35 56.2375 53.7333 56.8375 50.3L39.8375 44.9L38.2875 48.7L50.5875 52.85L49.1375 52.2C48.8708 53.0667 48.3875 53.8167 47.6875 54.45C47.0208 55.1167 46.0042 55.45 44.6375 55.45C43.6042 55.45 42.6875 55.2 41.8875 54.7C41.1208 54.2333 40.5208 53.55 40.0875 52.65C39.6875 51.7833 39.4875 50.75 39.4875 49.55C39.4875 48.1833 39.7375 47.0333 40.2375 46.1C40.7375 45.2 41.4208 44.5167 42.2875 44.05C43.1542 43.5833 44.1208 43.35 45.1875 43.35C45.9542 43.35 46.6875 43.4833 47.3875 43.75C48.1208 44.0167 48.8375 44.3667 49.5375 44.8L52.6375 39.6C51.4708 38.9333 50.2042 38.4 48.8375 38C47.5042 37.6 46.2375 37.4 45.0375 37.4ZM60.2242 49.2C60.2242 51.4333 60.7409 53.4333 61.7742 55.2C62.8409 56.9667 64.3242 58.35 66.2242 59.35C68.1242 60.3833 70.3076 60.9 72.7742 60.9C75.2742 60.9 77.4409 60.3833 79.2742 59.35C81.1076 58.35 82.5076 56.9667 83.4742 55.2C84.4742 53.4333 84.9742 51.4333 84.9742 49.2C84.9742 46.9667 84.4742 44.95 83.4742 43.15C82.5076 41.3833 81.1076 39.9833 79.2742 38.95C77.4409 37.9167 75.2409 37.4 72.6742 37.4C70.2742 37.4 68.1242 37.8667 66.2242 38.8C64.3576 39.7333 62.8909 41.0833 61.8242 42.85C60.7576 44.6167 60.2242 46.7333 60.2242 49.2ZM67.2742 49.15C67.2742 48.0167 67.5076 46.9833 67.9742 46.05C68.4409 45.15 69.0742 44.4333 69.8742 43.9C70.6742 43.3667 71.5742 43.1 72.5742 43.1C73.6742 43.1 74.6242 43.3667 75.4242 43.9C76.2242 44.4333 76.8409 45.15 77.2742 46.05C77.7076 46.9833 77.9242 48.0167 77.9242 49.15C77.9242 50.3167 77.7076 51.35 77.2742 52.25C76.8409 53.15 76.2242 53.8667 75.4242 54.4C74.6242 54.9333 73.6742 55.2 72.5742 55.2C71.5742 55.2 70.6742 54.9333 69.8742 54.4C69.0742 53.8667 68.4409 53.15 67.9742 52.25C67.5076 51.35 67.2742 50.3167 67.2742 49.15ZM96.8387 59.85L97.3887 55.95L97.2887 56.3C98.0553 57.6667 99.1387 58.7667 100.539 59.6C101.939 60.4667 103.655 60.9 105.689 60.9C107.755 60.9 109.472 60.2833 110.839 59.05C112.239 57.85 112.955 56.2833 112.989 54.35V38H105.989V51.75C105.955 52.7167 105.689 53.4833 105.189 54.05C104.722 54.65 103.922 54.95 102.789 54.95C101.722 54.95 100.789 54.6 99.9887 53.9C99.1887 53.2 98.572 52.25 98.1387 51.05C97.7053 49.85 97.4887 48.4667 97.4887 46.9V38H90.4887V59.85H96.8387Z" fill="url(#paint1_linear_2_69)"/>
</mask>
<g mask="url(#mask1_2_69)">
<rect x="-61" y="-78" width="253" height="253" fill="url(#paint2_linear_2_69)" fill-opacity="0.15"/>
</g>
<defs>
<linearGradient id="paint0_linear_2_69" x1="192" y1="-104" x2="-61" y2="149" gradientUnits="userSpaceOnUse">
<stop offset="0.395833" stop-color="#FF5353"/>
<stop offset="0.509501" stop-color="#FF8F4A"/>
<stop offset="0.619792" stop-color="#AD6CFF"/>
</linearGradient>
<linearGradient id="paint1_linear_2_69" x1="59" y1="60.5" x2="59" y2="38" gradientUnits="userSpaceOnUse">
<stop offset="0.25" stop-opacity="0"/>
<stop offset="1"/>
</linearGradient>
<linearGradient id="paint2_linear_2_69" x1="192" y1="-78" x2="-61" y2="175" gradientUnits="userSpaceOnUse">
<stop offset="0.395833" stop-color="#FF5353"/>
<stop offset="0.509501" stop-color="#FF8F4A"/>
<stop offset="0.619792" stop-color="#AD6CFF"/>
</linearGradient>
</defs>
</svg>
