<svg width="641" height="400" viewBox="0 0 641 400" fill="none" xmlns="http://www.w3.org/2000/svg">
<path d="M338.305 18.3636V382H255.918L124.526 190.949H122.395V382H23.6738V18.3636H107.481L236.742 208.705H239.583V18.3636H338.305ZM492.104 386.972C462.985 386.972 437.89 381.408 416.82 370.281C395.868 359.036 379.711 342.937 368.347 321.986C357.102 300.916 351.479 275.703 351.479 246.347C351.479 218.174 357.161 193.553 368.525 172.483C379.888 151.413 395.928 135.018 416.643 123.3C437.358 111.581 461.801 105.722 489.974 105.722C510.57 105.722 529.214 108.918 545.904 115.31C562.594 121.702 576.858 130.994 588.695 143.186C600.532 155.26 609.647 169.938 616.039 187.22C622.431 204.502 625.627 223.974 625.627 245.636V268.364H382.019V214.386H535.428C535.31 206.574 533.297 199.708 529.391 193.79C525.603 187.753 520.454 183.077 513.944 179.763C507.552 176.33 500.272 174.614 492.104 174.614C484.173 174.614 476.894 176.33 470.265 179.763C463.636 183.077 458.309 187.694 454.285 193.612C450.378 199.531 448.307 206.455 448.07 214.386V272.625C448.07 281.384 449.905 289.197 453.574 296.062C457.244 302.928 462.511 308.314 469.377 312.22C476.242 316.126 484.528 318.08 494.235 318.08C500.982 318.08 507.137 317.133 512.701 315.239C518.383 313.345 523.236 310.622 527.26 307.071C531.285 303.402 534.244 299.022 536.138 293.932H625.627C622.549 312.871 615.269 329.325 603.787 343.293C592.305 357.142 577.095 367.914 558.155 375.608C539.334 383.184 517.317 386.972 492.104 386.972Z" fill="url(#paint0_linear_108_2)"/>
<defs>
<linearGradient id="paint0_linear_108_2" x1="324" y1="12.5" x2="321" y2="665.124" gradientUnits="userSpaceOnUse">
<stop stop-color="#A287F8"/>
<stop offset="0.320406" stop-color="#FF457E"/>
<stop offset="0.689817" stop-color="#FFDB45"/>
</linearGradient>
</defs>
</svg>
