<svg width="127" height="53" viewBox="0 0 127 53" fill="none" xmlns="http://www.w3.org/2000/svg">
<mask id="mask0_6_19" style="mask-type:alpha" maskUnits="userSpaceOnUse" x="0" y="0" width="127" height="53">
<rect width="127" height="53" fill="#D9D9D9"/>
</mask>
<g mask="url(#mask0_6_19)">
<mask id="mask1_6_19" style="mask-type:alpha" maskUnits="userSpaceOnUse" x="8" y="10" width="109" height="24">
<path d="M14.95 11.15L15.5 15.05L15.4 14.7C16.1667 13.3333 17.25 12.2333 18.65 11.4C20.05 10.5333 21.7667 10.1 23.8 10.1C25.8667 10.1 27.5833 10.7167 28.95 11.95C30.35 13.15 31.0667 14.7167 31.1 16.65V33H24.1V19.25C24.0667 18.2833 23.8 17.5167 23.3 16.95C22.8333 16.35 22.0333 16.05 20.9 16.05C19.8333 16.05 18.9 16.4 18.1 17.1C17.3 17.8 16.6833 18.75 16.25 19.95C15.8167 21.15 15.6 22.5333 15.6 24.1V33H8.6V11.15H14.95ZM49.0375 33.6C46.3708 33.6 44.1042 33.1 42.2375 32.1C40.4042 31.1 39.0042 29.7167 38.0375 27.95C37.0708 26.1833 36.5875 24.15 36.5875 21.85C36.5875 19.65 37.1542 17.6667 38.2875 15.9C39.4208 14.1333 40.9375 12.7333 42.8375 11.7C44.7375 10.6333 46.8542 10.1 49.1875 10.1C52.3208 10.1 54.8875 11.0167 56.8875 12.85C58.9208 14.65 60.2375 17.2667 60.8375 20.7L43.8375 26.1L42.2875 22.3L54.5875 18.15L53.1375 18.8C52.8708 17.9333 52.3875 17.1833 51.6875 16.55C51.0208 15.8833 50.0042 15.55 48.6375 15.55C47.6042 15.55 46.6875 15.8 45.8875 16.3C45.1208 16.7667 44.5208 17.45 44.0875 18.35C43.6875 19.2167 43.4875 20.25 43.4875 21.45C43.4875 22.8167 43.7375 23.9667 44.2375 24.9C44.7375 25.8 45.4208 26.4833 46.2875 26.95C47.1542 27.4167 48.1208 27.65 49.1875 27.65C49.9542 27.65 50.6875 27.5167 51.3875 27.25C52.1208 26.9833 52.8375 26.6333 53.5375 26.2L56.6375 31.4C55.4708 32.0667 54.2042 32.6 52.8375 33C51.5042 33.4 50.2375 33.6 49.0375 33.6ZM64.2242 21.8C64.2242 19.5667 64.7409 17.5667 65.7742 15.8C66.8409 14.0333 68.3242 12.65 70.2242 11.65C72.1242 10.6167 74.3076 10.1 76.7742 10.1C79.2742 10.1 81.4409 10.6167 83.2742 11.65C85.1076 12.65 86.5076 14.0333 87.4742 15.8C88.4742 17.5667 88.9742 19.5667 88.9742 21.8C88.9742 24.0333 88.4742 26.05 87.4742 27.85C86.5076 29.6167 85.1076 31.0167 83.2742 32.05C81.4409 33.0833 79.2409 33.6 76.6742 33.6C74.2742 33.6 72.1242 33.1333 70.2242 32.2C68.3576 31.2667 66.8909 29.9167 65.8242 28.15C64.7576 26.3833 64.2242 24.2667 64.2242 21.8ZM71.2742 21.85C71.2742 22.9833 71.5076 24.0167 71.9742 24.95C72.4409 25.85 73.0742 26.5667 73.8742 27.1C74.6742 27.6333 75.5742 27.9 76.5742 27.9C77.6742 27.9 78.6242 27.6333 79.4242 27.1C80.2242 26.5667 80.8409 25.85 81.2742 24.95C81.7076 24.0167 81.9242 22.9833 81.9242 21.85C81.9242 20.6833 81.7076 19.65 81.2742 18.75C80.8409 17.85 80.2242 17.1333 79.4242 16.6C78.6242 16.0667 77.6742 15.8 76.5742 15.8C75.5742 15.8 74.6742 16.0667 73.8742 16.6C73.0742 17.1333 72.4409 17.85 71.9742 18.75C71.5076 19.65 71.2742 20.6833 71.2742 21.85ZM100.839 11.15L101.389 15.05L101.289 14.7C102.055 13.3333 103.139 12.2333 104.539 11.4C105.939 10.5333 107.655 10.1 109.689 10.1C111.755 10.1 113.472 10.7167 114.839 11.95C116.239 13.15 116.955 14.7167 116.989 16.65V33H109.989V19.25C109.955 18.2833 109.689 17.5167 109.189 16.95C108.722 16.35 107.922 16.05 106.789 16.05C105.722 16.05 104.789 16.4 103.989 17.1C103.189 17.8 102.572 18.75 102.139 19.95C101.705 21.15 101.489 22.5333 101.489 24.1V33H94.4887V11.15H100.839Z" fill="#AD6CFF"/>
</mask>
<g mask="url(#mask1_6_19)">
<rect x="-57" y="-109" width="253" height="253" fill="url(#paint0_linear_6_19)"/>
</g>
<mask id="mask2_6_19" style="mask-type:alpha" maskUnits="userSpaceOnUse" x="8" y="32" width="109" height="24">
<path d="M14.95 54.85L15.5 50.95L15.4 51.3C16.1667 52.6667 17.25 53.7667 18.65 54.6C20.05 55.4667 21.7667 55.9 23.8 55.9C25.8667 55.9 27.5833 55.2833 28.95 54.05C30.35 52.85 31.0667 51.2833 31.1 49.35V33H24.1V46.75C24.0667 47.7167 23.8 48.4833 23.3 49.05C22.8333 49.65 22.0333 49.95 20.9 49.95C19.8333 49.95 18.9 49.6 18.1 48.9C17.3 48.2 16.6833 47.25 16.25 46.05C15.8167 44.85 15.6 43.4667 15.6 41.9V33H8.6V54.85H14.95ZM49.0375 32.4C46.3708 32.4 44.1042 32.9 42.2375 33.9C40.4042 34.9 39.0042 36.2833 38.0375 38.05C37.0708 39.8167 36.5875 41.85 36.5875 44.15C36.5875 46.35 37.1542 48.3333 38.2875 50.1C39.4208 51.8667 40.9375 53.2667 42.8375 54.3C44.7375 55.3667 46.8542 55.9 49.1875 55.9C52.3208 55.9 54.8875 54.9833 56.8875 53.15C58.9208 51.35 60.2375 48.7333 60.8375 45.3L43.8375 39.9L42.2875 43.7L54.5875 47.85L53.1375 47.2C52.8708 48.0667 52.3875 48.8167 51.6875 49.45C51.0208 50.1167 50.0042 50.45 48.6375 50.45C47.6042 50.45 46.6875 50.2 45.8875 49.7C45.1208 49.2333 44.5208 48.55 44.0875 47.65C43.6875 46.7833 43.4875 45.75 43.4875 44.55C43.4875 43.1833 43.7375 42.0333 44.2375 41.1C44.7375 40.2 45.4208 39.5167 46.2875 39.05C47.1542 38.5833 48.1208 38.35 49.1875 38.35C49.9542 38.35 50.6875 38.4833 51.3875 38.75C52.1208 39.0167 52.8375 39.3667 53.5375 39.8L56.6375 34.6C55.4708 33.9333 54.2042 33.4 52.8375 33C51.5042 32.6 50.2375 32.4 49.0375 32.4ZM64.2242 44.2C64.2242 46.4333 64.7409 48.4333 65.7742 50.2C66.8409 51.9667 68.3242 53.35 70.2242 54.35C72.1242 55.3833 74.3076 55.9 76.7742 55.9C79.2742 55.9 81.4409 55.3833 83.2742 54.35C85.1076 53.35 86.5076 51.9667 87.4742 50.2C88.4742 48.4333 88.9742 46.4333 88.9742 44.2C88.9742 41.9667 88.4742 39.95 87.4742 38.15C86.5076 36.3833 85.1076 34.9833 83.2742 33.95C81.4409 32.9167 79.2409 32.4 76.6742 32.4C74.2742 32.4 72.1242 32.8667 70.2242 33.8C68.3576 34.7333 66.8909 36.0833 65.8242 37.85C64.7576 39.6167 64.2242 41.7333 64.2242 44.2ZM71.2742 44.15C71.2742 43.0167 71.5076 41.9833 71.9742 41.05C72.4409 40.15 73.0742 39.4333 73.8742 38.9C74.6742 38.3667 75.5742 38.1 76.5742 38.1C77.6742 38.1 78.6242 38.3667 79.4242 38.9C80.2242 39.4333 80.8409 40.15 81.2742 41.05C81.7076 41.9833 81.9242 43.0167 81.9242 44.15C81.9242 45.3167 81.7076 46.35 81.2742 47.25C80.8409 48.15 80.2242 48.8667 79.4242 49.4C78.6242 49.9333 77.6742 50.2 76.5742 50.2C75.5742 50.2 74.6742 49.9333 73.8742 49.4C73.0742 48.8667 72.4409 48.15 71.9742 47.25C71.5076 46.35 71.2742 45.3167 71.2742 44.15ZM100.839 54.85L101.389 50.95L101.289 51.3C102.055 52.6667 103.139 53.7667 104.539 54.6C105.939 55.4667 107.655 55.9 109.689 55.9C111.755 55.9 113.472 55.2833 114.839 54.05C116.239 52.85 116.955 51.2833 116.989 49.35V33H109.989V46.75C109.955 47.7167 109.689 48.4833 109.189 49.05C108.722 49.65 107.922 49.95 106.789 49.95C105.722 49.95 104.789 49.6 103.989 48.9C103.189 48.2 102.572 47.25 102.139 46.05C101.705 44.85 101.489 43.4667 101.489 41.9V33H94.4887V54.85H100.839Z" fill="url(#paint1_linear_6_19)"/>
</mask>
<g mask="url(#mask2_6_19)">
<rect x="-57" y="-83" width="253" height="253" fill="url(#paint2_linear_6_19)" fill-opacity="0.15"/>
</g>
</g>
<defs>
<linearGradient id="paint0_linear_6_19" x1="196" y1="-109" x2="-57" y2="144" gradientUnits="userSpaceOnUse">
<stop offset="0.395833" stop-color="#FF5353"/>
<stop offset="0.509501" stop-color="#FF8F4A"/>
<stop offset="0.619792" stop-color="#AD6CFF"/>
</linearGradient>
<linearGradient id="paint1_linear_6_19" x1="63" y1="55.5" x2="63" y2="33" gradientUnits="userSpaceOnUse">
<stop offset="0.25" stop-opacity="0"/>
<stop offset="1"/>
</linearGradient>
<linearGradient id="paint2_linear_6_19" x1="196" y1="-83" x2="-57" y2="170" gradientUnits="userSpaceOnUse">
<stop offset="0.395833" stop-color="#FF5353"/>
<stop offset="0.509501" stop-color="#FF8F4A"/>
<stop offset="0.619792" stop-color="#AD6CFF"/>
</linearGradient>
</defs>
</svg>
