<svg width="655" height="610" viewBox="0 0 655 610" fill="none" xmlns="http://www.w3.org/2000/svg">
<path d="M338.068 125.364V489H255.682L124.29 297.949H122.159V489H23.4375V125.364H107.244L236.506 315.705H239.347V125.364H338.068Z" fill="url(#paint0_linear_108_2)"/>
<path d="M508.54 488.972C479.42 488.972 454.326 483.408 433.256 472.281C412.304 461.036 396.146 444.937 384.783 423.986C373.537 402.916 367.915 377.703 367.915 348.347C367.915 320.174 373.597 295.553 384.96 274.483C396.324 253.413 412.363 237.018 433.078 225.3C453.793 213.581 478.237 207.722 506.409 207.722C527.006 207.722 545.649 210.918 562.339 217.31C579.03 223.702 593.294 232.994 605.131 245.186C616.968 257.26 626.082 271.938 632.474 289.22C638.866 306.502 642.062 325.974 642.062 347.636V370.364H398.455V316.386H551.864C551.745 308.574 549.733 301.708 545.827 295.79C542.039 289.753 536.89 285.077 530.379 281.763C523.987 278.33 516.707 276.614 508.54 276.614C500.609 276.614 493.329 278.33 486.7 281.763C480.071 285.077 474.745 289.694 470.72 295.612C466.814 301.531 464.742 308.455 464.506 316.386V374.625C464.506 383.384 466.34 391.197 470.01 398.062C473.679 404.928 478.947 410.314 485.812 414.22C492.678 418.126 500.964 420.08 510.67 420.08C517.418 420.08 523.573 419.133 529.136 417.239C534.818 415.345 539.671 412.622 543.696 409.071C547.721 405.402 550.68 401.022 552.574 395.932H642.062C638.985 414.871 631.705 431.325 620.223 445.293C608.741 459.142 593.53 469.914 574.591 477.608C555.77 485.184 533.753 488.972 508.54 488.972Z" fill="url(#paint1_linear_108_2)"/>
<defs>
<linearGradient id="paint0_linear_108_2" x1="181.282" y1="121" x2="181.282" y2="1011" gradientUnits="userSpaceOnUse">
<stop stop-color="#A287F8"/>
<stop offset="0.320406" stop-color="#FF457E"/>
<stop offset="0.519151" stop-color="#FFDB45"/>
</linearGradient>
<linearGradient id="paint1_linear_108_2" x1="504.236" y1="116" x2="504.236" y2="1006" gradientUnits="userSpaceOnUse">
<stop stop-color="#A287F8"/>
<stop offset="0.320406" stop-color="#FF457E"/>
<stop offset="0.519151" stop-color="#FFDB45"/>
</linearGradient>
</defs>
</svg>
