<svg width="666" height="400" viewBox="0 0 666 400" fill="none" xmlns="http://www.w3.org/2000/svg">
<path d="M338.305 18.3636V382H255.918L124.526 190.949H122.395V382H23.6738V18.3636H107.481L236.742 208.705H239.583V18.3636H338.305ZM517.104 386.972C487.985 386.972 462.89 381.408 441.82 370.281C420.868 359.036 404.711 342.937 393.347 321.986C382.102 300.916 376.479 275.703 376.479 246.347C376.479 218.174 382.161 193.553 393.525 172.483C404.888 151.413 420.928 135.018 441.643 123.3C462.358 111.581 486.801 105.722 514.974 105.722C535.57 105.722 554.214 108.918 570.904 115.31C587.594 121.702 601.858 130.994 613.695 143.186C625.532 155.26 634.647 169.938 641.039 187.22C647.431 204.502 650.627 223.974 650.627 245.636V268.364H407.019V214.386H560.428C560.31 206.574 558.297 199.708 554.391 193.79C550.603 187.753 545.454 183.077 538.944 179.763C532.552 176.33 525.272 174.614 517.104 174.614C509.173 174.614 501.894 176.33 495.265 179.763C488.636 183.077 483.309 187.694 479.285 193.612C475.378 199.531 473.307 206.455 473.07 214.386V272.625C473.07 281.384 474.905 289.197 478.574 296.062C482.244 302.928 487.511 308.314 494.377 312.22C501.242 316.126 509.528 318.08 519.235 318.08C525.982 318.08 532.137 317.133 537.701 315.239C543.383 313.345 548.236 310.622 552.26 307.071C556.285 303.402 559.244 299.022 561.138 293.932H650.627C647.549 312.871 640.269 329.325 628.787 343.293C617.305 357.142 602.095 367.914 583.155 375.608C564.334 383.184 542.317 386.972 517.104 386.972Z" fill="url(#paint0_linear_108_2)"/>
<defs>
<linearGradient id="paint0_linear_108_2" x1="336.637" y1="12.5" x2="333.749" y2="665.125" gradientUnits="userSpaceOnUse">
<stop stop-color="#A287F8"/>
<stop offset="0.320406" stop-color="#FF457E"/>
<stop offset="0.689817" stop-color="#FFDB45"/>
</linearGradient>
</defs>
</svg>
