<svg width="655" height="978" viewBox="0 0 655 978" fill="none" xmlns="http://www.w3.org/2000/svg">
<path d="M338.068 125.364V489H255.682L124.29 297.949H122.159V489H23.4375V125.364H107.244L236.506 315.705H239.347V125.364H338.068Z" fill="url(#paint0_linear_104_74)"/>
<path d="M338.068 852.636V489H255.682L124.29 680.051H122.159V489H23.4375V852.636H107.244L236.506 662.295H239.347V852.636H338.068Z" fill="url(#paint1_linear_104_74)"/>
<path d="M508.54 488.972C479.42 488.972 454.326 483.408 433.256 472.281C412.304 461.036 396.146 444.937 384.783 423.986C373.537 402.916 367.915 377.703 367.915 348.347C367.915 320.174 373.597 295.553 384.96 274.483C396.324 253.413 412.363 237.018 433.078 225.3C453.793 213.581 478.237 207.722 506.409 207.722C527.006 207.722 545.649 210.918 562.339 217.31C579.03 223.702 593.294 232.994 605.131 245.186C616.968 257.26 626.082 271.938 632.474 289.22C638.866 306.502 642.062 325.974 642.062 347.636V370.364H398.455V316.386H551.864C551.745 308.574 549.733 301.708 545.827 295.79C542.039 289.753 536.89 285.077 530.379 281.763C523.987 278.33 516.707 276.614 508.54 276.614C500.609 276.614 493.329 278.33 486.7 281.763C480.071 285.077 474.745 289.694 470.72 295.612C466.814 301.531 464.742 308.455 464.506 316.386V374.625C464.506 383.384 466.34 391.197 470.01 398.062C473.679 404.928 478.947 410.314 485.812 414.22C492.678 418.126 500.964 420.08 510.67 420.08C517.418 420.08 523.573 419.133 529.136 417.239C534.818 415.345 539.671 412.622 543.696 409.071C547.721 405.402 550.68 401.022 552.574 395.932H642.062C638.985 414.871 631.705 431.325 620.223 445.293C608.741 459.142 593.53 469.914 574.591 477.608C555.77 485.184 533.753 488.972 508.54 488.972Z" fill="url(#paint2_linear_104_74)"/>
<path d="M508.54 489.028C479.42 489.028 454.326 494.592 433.256 505.719C412.304 516.964 396.146 533.063 384.783 554.014C373.537 575.084 367.915 600.297 367.915 629.653C367.915 657.826 373.597 682.447 384.96 703.517C396.324 724.587 412.363 740.982 433.078 752.7C453.793 764.419 478.237 770.278 506.409 770.278C527.006 770.278 545.649 767.082 562.339 760.69C579.03 754.298 593.294 745.006 605.131 732.814C616.968 720.74 626.082 706.062 632.474 688.78C638.866 671.498 642.062 652.026 642.062 630.364V607.636H398.455V661.614H551.864C551.745 669.426 549.733 676.292 545.827 682.21C542.039 688.247 536.89 692.923 530.379 696.237C523.987 699.67 516.707 701.386 508.54 701.386C500.609 701.386 493.329 699.67 486.7 696.237C480.071 692.923 474.745 688.306 470.72 682.388C466.814 676.469 464.742 669.545 464.506 661.614V603.375C464.506 594.616 466.34 586.803 470.01 579.938C473.679 573.072 478.947 567.686 485.812 563.78C492.678 559.874 500.964 557.92 510.67 557.92C517.418 557.92 523.573 558.867 529.136 560.761C534.818 562.655 539.671 565.378 543.696 568.929C547.721 572.598 550.68 576.978 552.574 582.068H642.062C638.985 563.129 631.705 546.675 620.223 532.707C608.741 518.858 593.53 508.086 574.591 500.392C555.77 492.816 533.753 489.028 508.54 489.028Z" fill="url(#paint3_linear_104_74)"/>
<defs>
<linearGradient id="paint0_linear_104_74" x1="181.282" y1="121" x2="181.282" y2="1011" gradientUnits="userSpaceOnUse">
<stop stop-color="#A287F8"/>
<stop offset="0.320406" stop-color="#FF457E"/>
<stop offset="0.519151" stop-color="#FFDB45"/>
</linearGradient>
<linearGradient id="paint1_linear_104_74" x1="181.282" y1="1175.5" x2="181.282" y2="-33" gradientUnits="userSpaceOnUse">
<stop offset="0.393521" stop-color="#A287F8" stop-opacity="0"/>
<stop offset="0.474891" stop-color="#A287F8" stop-opacity="0.05"/>
<stop offset="0.53261" stop-color="#FF457E" stop-opacity="0.1"/>
<stop offset="0.59093" stop-color="#FFDB45" stop-opacity="0.15"/>
</linearGradient>
<linearGradient id="paint2_linear_104_74" x1="504.236" y1="116" x2="504.236" y2="1006" gradientUnits="userSpaceOnUse">
<stop stop-color="#A287F8"/>
<stop offset="0.320406" stop-color="#FF457E"/>
<stop offset="0.519151" stop-color="#FFDB45"/>
</linearGradient>
<linearGradient id="paint3_linear_104_74" x1="504.236" y1="1180.5" x2="504.236" y2="-28" gradientUnits="userSpaceOnUse">
<stop offset="0.393521" stop-color="#A287F8" stop-opacity="0"/>
<stop offset="0.474891" stop-color="#A287F8" stop-opacity="0.05"/>
<stop offset="0.53261" stop-color="#FF457E" stop-opacity="0.1"/>
<stop offset="0.59093" stop-color="#FFDB45" stop-opacity="0.15"/>
</linearGradient>
</defs>
</svg>
